# ProBuilder 4.0.5
# https://unity3d.com/unity/features/worldbuilding/probuilder
# 16/5/2019 6:11:43 PM

mtllib ./DoorRamp.mtl
o DoorRamp

g DoorRamp
v -1.446795 -0.01300001 -21.83097
v -1.446795 -0.01300001 -24.01551
v -1.446795 0.5714293 -21.85765
v -1.446795 0.5714293 -23.81718
v 1.376967 -0.01300001 -24.01551
v 1.376967 -0.01300001 -21.83097
v 1.376967 0.5714293 -23.81718
v 1.376967 0.5714293 -21.85765
v -1.446795 -0.01300001 -24.65131
v 1.376967 -0.01300001 -24.65131
v 1.376967 -0.01300001 -21.17311
v -1.446795 -0.01300001 -21.17311

vt 1.11203 -1.117587E-08
vt -1.072506 -1.117587E-08
vt 1.085356 0.5844293
vt -0.8741837 0.5844293
vt 1.072506 -1.745536E-07
vt -1.11203 -1.745536E-07
vt 0.8741837 0.5844291
vt -1.085356 0.5844291
vt -0.8009672 1.085356
vt 2.022795 1.085356
vt -0.8009672 -0.8741837
vt 2.022795 -0.8741837
vt 0.8009673 -1.072506
vt -2.022795 -1.072506
vt 0.8009673 1.11203
vt -2.022795 1.11203
vt -2.022795 -1.708309
vt 0.8009672 -1.708309
vt -1.708309 -1.117587E-08
vt 1.708309 -2.255152E-07
vt -0.8009672 -0.3805841
vt 2.022795 -0.3805841
vt -0.8009672 -1.399075
vt 2.022795 -1.399075
vt 0.8009672 1.769892
vt -2.022795 1.769892
vt -1.769892 -1.811782E-07
vt 1.769892 -1.117587E-08
vt 2.022795 0.4459679
vt -0.8009672 0.4459679
vt 2.022795 1.34605
vt -0.8009672 1.34605

vn -1 0 0
vn 1 2.039756E-07 0
vn 0 1 0
vn 0 -1 0
vn 0 0.8189821 -0.5738191
vn 0 0.7605265 0.649307

g DoorRamp
usemtl Collider
f 9/19/1 2/2/1 4/4/1
f 10/20/2 7/7/2 5/5/2
f 11/27/2 6/6/2 8/8/2
f 12/28/1 3/3/1 1/1/1
f 4/4/1 2/2/1 1/1/1
f 1/1/1 3/3/1 4/4/1
f 8/8/2 6/6/2 5/5/2
f 5/5/2 7/7/2 8/8/2
f 4/12/3 3/10/3 8/9/3
f 8/9/3 7/11/3 4/12/3
f 1/16/4 2/14/4 5/13/4
f 5/13/4 6/15/4 1/16/4
f 10/18/4 5/13/4 2/14/4
f 2/14/4 9/17/4 10/18/4
f 9/24/5 4/22/5 7/21/5
f 7/21/5 10/23/5 9/24/5
f 12/26/4 1/16/4 6/15/4
f 6/15/4 11/25/4 12/26/4
f 11/32/6 8/30/6 3/29/6
f 3/29/6 12/31/6 11/32/6

