# Blender v2.93.4 OBJ File: 'SlateMine3.blend'
# www.blender.org
mtllib SlateMineRiver.mtl
o Plane
v -22.446575 38.679749 -190.571259
v 56.947418 41.240753 -191.952194
v -32.912258 41.252716 -122.243622
v 43.504971 43.813721 -100.663094
v -21.883507 28.208382 -197.178787
v 57.510490 30.769386 -198.559723
v -12.338049 -10.559662 -207.305801
v 55.630787 -7.998650 -208.686737
v -29.113010 -78.518456 -218.272369
v 38.855827 -75.957451 -219.653305
v -27.084984 -132.792267 -225.211700
v 40.938587 -132.863464 -226.219955
v 34.935402 40.530712 -191.569336
v 22.318264 43.103680 -106.646301
v 35.498474 30.059349 -198.176849
v 36.786400 -8.708691 -208.303864
v 20.011440 -76.667488 -219.270447
v 22.079025 -132.843719 -225.940399
v 34.042549 46.391212 -82.588669
v 12.855844 45.681175 -88.571877
v 29.330820 50.755409 -60.584015
v 9.591497 50.093872 -66.158478
v 29.515789 53.716084 -47.105644
v 9.776466 53.054550 -52.680107
v 24.956770 57.004135 -32.361305
v 0.693306 56.190979 -39.213402
v 27.414469 58.665649 -24.779160
v -1.935886 59.146263 -28.443771
v 45.915825 58.912186 -10.495834
v -24.396584 63.464504 -29.093773
v 53.469788 59.436226 4.834671
v -35.786304 66.513206 -16.862396
v 46.722931 59.803574 21.536957
v -38.526924 66.668785 -1.914978
v 27.916134 59.006184 31.088242
v -35.549034 68.683800 18.169113
vt 0.722750 0.000000
vt 0.722750 1.000000
vt 1.000000 1.000000
vt 1.000000 0.000000
vt 0.722750 0.000000
vt 0.000000 0.000000
vt 0.000000 0.000000
vt 0.722750 0.000000
vt 0.000000 0.000000
vt 0.722750 0.000000
vt 0.000000 0.000000
vt 0.722750 0.000000
vt 0.000000 0.000000
vt 1.000000 0.000000
vt 1.000000 0.000000
vt 1.000000 0.000000
vt 1.000000 0.000000
vt 0.000000 1.000000
vt 0.722750 1.000000
vt 1.000000 1.000000
vt 0.722750 1.000000
vt 1.000000 1.000000
vt 0.722750 1.000000
vt 1.000000 1.000000
vt 0.722750 1.000000
vt 1.000000 1.000000
vt 0.722750 1.000000
vt 1.000000 1.000000
vt 0.722750 1.000000
vt 1.000000 1.000000
vt 0.722750 1.000000
vt 1.000000 1.000000
vt 0.722750 1.000000
vt 1.000000 1.000000
vt 0.722750 1.000000
vt 1.000000 1.000000
vn -0.0340 0.8661 -0.4986
vn -0.0160 0.9972 -0.0725
vn -0.0118 0.9963 -0.0846
vn -0.0343 0.8495 -0.5265
vn -0.0297 0.3962 -0.9177
vn -0.0299 0.4067 -0.9131
vn -0.0337 0.8808 -0.4722
vn -0.0266 0.2085 -0.9777
vn -0.0266 0.2067 -0.9780
vn -0.0229 0.1421 -0.9896
vn -0.0226 0.1415 -0.9897
vn -0.0196 0.1184 -0.9927
vn -0.0197 0.1215 -0.9924
vn -0.0232 0.1426 -0.9895
vn -0.0196 0.1155 -0.9931
vn -0.0266 0.2146 -0.9763
vn -0.0298 0.3992 -0.9163
vn -0.0279 0.9989 -0.0377
vn 0.0135 0.9862 -0.1649
vn 0.0130 0.9865 -0.1632
vn 0.0239 0.9793 -0.2008
vn 0.0248 0.9787 -0.2038
vn 0.0272 0.9768 -0.2123
vn 0.0271 0.9769 -0.2120
vn 0.0348 0.9730 -0.2282
vn 0.0352 0.9727 -0.2291
vn 0.0888 0.9581 -0.2722
vn 0.0906 0.9576 -0.2733
vn 0.1022 0.9857 -0.1336
vn 0.1027 0.9847 -0.1403
vn 0.0874 0.9952 -0.0428
vn 0.0868 0.9954 -0.0394
vn 0.0898 0.9959 0.0107
vn 0.0867 0.9962 0.0097
vn 0.1066 0.9941 0.0161
usemtl Material.001
s 1
f 13/1/1 14/2/2 4/3/3 2/4/4
f 13/1/1 15/5/5 5/6/6 1/7/7
f 15/5/5 16/8/8 7/9/9 5/6/6
f 16/8/8 17/10/10 9/11/11 7/9/9
f 17/10/10 18/12/12 11/13/13 9/11/11
f 10/14/14 12/15/15 18/12/12 17/10/10
f 8/16/16 10/14/14 17/10/10 16/8/8
f 6/17/17 8/16/16 16/8/8 15/5/5
f 2/4/4 6/17/17 15/5/5 13/1/1
f 1/7/7 3/18/18 14/2/2 13/1/1
f 14/2/2 20/19/19 19/20/20 4/3/3
f 20/19/19 22/21/21 21/22/22 19/20/20
f 22/21/21 24/23/23 23/24/24 21/22/22
f 24/23/23 26/25/25 25/26/26 23/24/24
f 26/25/25 28/27/27 27/28/28 25/26/26
f 28/27/27 30/29/29 29/30/30 27/28/28
f 30/29/29 32/31/31 31/32/32 29/30/30
f 32/31/31 34/33/33 33/34/34 31/32/32
f 34/33/33 36/35/35 35/36/35 33/34/34
